<svg xmlns="http://www.w3.org/2000/svg" width="20" height="20" viewBox="0 0 20 20">
    <g fill="#23aae2" fill-rule="evenodd">
        <path d="M9.977 16.684a.922.922 0 0 1-.922-.922V9.724H7.189a.922.922 0 1 1 0-1.844h1.866v-.83a3.739 3.739 0 0 1 3.735-3.733.921.921 0 0 1 0 1.844 1.892 1.892 0 0 0-1.891 1.889v.83h1.913a.922.922 0 1 1 0 1.844h-1.913v6.038a.922.922 0 0 1-.922.922"/>
        <path d="M10 0C7.284 0 6.943.011 5.877.06 4.813.11 4.086.278 3.449.525a4.898 4.898 0 0 0-1.77 1.153A4.895 4.895 0 0 0 .525 3.45C.278 4.085.109 4.812.06 5.877.011 6.943 0 7.284 0 10s.011 3.056.06 4.123c.049 1.065.218 1.791.465 2.427a4.895 4.895 0 0 0 1.154 1.772 4.911 4.911 0 0 0 1.77 1.153c.637.247 1.364.416 2.428.465 1.066.048 1.407.06 4.123.06s3.057-.012 4.123-.06c1.064-.049 1.791-.218 2.428-.465a4.911 4.911 0 0 0 1.77-1.153 4.882 4.882 0 0 0 1.154-1.772c.248-.636.417-1.362.464-2.427.049-1.067.061-1.407.061-4.123s-.012-3.057-.061-4.123c-.047-1.065-.216-1.792-.464-2.427a4.882 4.882 0 0 0-1.154-1.772 4.898 4.898 0 0 0-1.77-1.153C15.914.278 15.187.11 14.123.06 13.057.011 12.716 0 10 0m0 1.802c2.67 0 2.986.01 4.041.058.975.044 1.504.207 1.856.344.467.182.8.4 1.151.748.349.35.566.683.748 1.15.137.353.3.882.344 1.857.048 1.055.058 1.371.058 4.041 0 2.67-.01 2.986-.058 4.041-.044.975-.207 1.504-.344 1.857-.182.466-.399.8-.748 1.15-.351.35-.684.566-1.151.747-.352.138-.881.3-1.856.345-1.055.048-1.371.058-4.041.058-2.67 0-2.986-.01-4.041-.058-.975-.045-1.504-.207-1.856-.345a3.104 3.104 0 0 1-1.151-.748 3.113 3.113 0 0 1-.748-1.149c-.137-.353-.3-.882-.344-1.857-.048-1.055-.058-1.37-.058-4.04s.01-2.987.058-4.042c.044-.975.207-1.504.344-1.857.182-.467.399-.8.748-1.15a3.129 3.129 0 0 1 1.151-.748c.352-.137.881-.3 1.856-.344C7.014 1.812 7.33 1.802 10 1.802"/>
    </g>
</svg>
