<svg xmlns="http://www.w3.org/2000/svg" xmlns:xlink="http://www.w3.org/1999/xlink" width="20" height="20" viewBox="0 0 20 20">
    <defs>
        <path id="a" d="M0 10V0h20v20H0z"/>
    </defs>
    <g fill="none" fill-rule="evenodd">
        <g>
            <mask id="b" fill="#fff">
                <use xlink:href="#a"/>
            </mask>
            <path fill="#ffffff" d="M10 0C7.284 0 6.943.01 5.877.06 4.813.109 4.086.278 3.449.525a4.911 4.911 0 0 0-1.77 1.153A4.882 4.882 0 0 0 .525 3.45C.277 4.086.108 4.812.061 5.877.012 6.944 0 7.284 0 10s.012 3.057.061 4.123c.047 1.065.216 1.792.464 2.427a4.882 4.882 0 0 0 1.154 1.772 4.898 4.898 0 0 0 1.77 1.153c.637.247 1.364.416 2.428.465 1.066.049 1.407.06 4.123.06s3.057-.011 4.123-.06c1.064-.05 1.791-.218 2.428-.465a4.898 4.898 0 0 0 1.77-1.153 4.882 4.882 0 0 0 1.154-1.772c.248-.635.417-1.362.464-2.427.049-1.066.061-1.407.061-4.123s-.012-3.056-.061-4.123c-.047-1.065-.216-1.791-.464-2.427a4.882 4.882 0 0 0-1.154-1.772 4.911 4.911 0 0 0-1.77-1.153C15.914.278 15.187.109 14.123.06 13.057.01 12.716 0 10 0m0 1.802c2.67 0 2.986.01 4.041.058.975.045 1.504.207 1.856.345.467.18.8.398 1.151.748.349.349.566.682.748 1.149.137.353.3.882.344 1.857.048 1.055.058 1.37.058 4.04s-.01 2.987-.058 4.042c-.044.975-.207 1.504-.344 1.857-.182.467-.399.8-.748 1.15a3.129 3.129 0 0 1-1.151.748c-.352.137-.881.3-1.856.344-1.055.048-1.371.058-4.041.058-2.67 0-2.986-.01-4.041-.058-.975-.044-1.504-.207-1.856-.344a3.129 3.129 0 0 1-1.151-.748 3.117 3.117 0 0 1-.748-1.15c-.137-.353-.3-.882-.344-1.857-.048-1.055-.058-1.371-.058-4.041 0-2.67.01-2.986.058-4.041.044-.975.207-1.504.344-1.857.182-.467.399-.8.748-1.15.351-.35.684-.566 1.151-.747.352-.138.881-.3 1.856-.345C7.014 1.812 7.33 1.802 10 1.802" mask="url(#b)"/>
        </g>
        <path fill="#ffffff" d="M5.13 7.263c.204.109 2.349 1.26 3.494 1.876l.709.38c.235.127.492.154.667.154.175 0 .433-.027.667-.153l4.202-2.257c.253-.136.568-.488.478-.848-.024-.092-.136-.393-.607-.393H5.26c-.471 0-.583.3-.607.393-.09.36.225.712.478.848"/>
        <path fill="#ffffff" d="M15.175 8.55c-.141-.085-.311-.078-.505.023l-2.245 1.174-2.072 1.084a.639.639 0 0 1-.353.074.637.637 0 0 1-.352-.074L7.81 9.87 5.33 8.573c-.193-.1-.363-.108-.505-.022-.204.124-.204.354-.204.444v4.11c0 .416.467.873.893.873h8.974c.424 0 .89-.457.89-.873V8.992c0-.087 0-.317-.203-.441"/>
    </g>
</svg>
