<?xml version="1.0" encoding="UTF-8"?>
<svg width="35px" height="35px" viewBox="0 0 35 35" version="1.1" xmlns="http://www.w3.org/2000/svg" xmlns:xlink="http://www.w3.org/1999/xlink">
    <defs></defs>
    <g id="Desktop/iPad---Publikt" stroke="none" stroke-width="1" fill="none" fill-rule="evenodd">
        <g id="om-oss-forbundet-desktop" transform="translate(-678.000000, -2115.000000)" fill="#CCCCCC">
            <g id="Group-18" transform="translate(440.000000, 240.000000)">
                <g id="Group-17" transform="translate(1.000000, 1799.000000)">
                    <g id="Group-7" transform="translate(0.000000, 41.000000)">
                        <g id="Group">
                            <g id="20.7">
                                <g id="print" transform="translate(237.000000, 35.000000)">
                                    <path d="M17.2569886,0 C12.5701705,0 11.9827273,0.0198863636 10.1420455,0.103806818 C8.30494318,0.187727273 7.05051136,0.479261364 5.95318182,0.906022727 C4.81806818,1.34710227 3.85596591,1.93693182 2.89625,2.89625 C1.93693182,3.85596591 1.34710227,4.81846591 0.906022727,5.95318182 C0.479261364,7.05090909 0.187727273,8.30534091 0.103806818,10.1420455 C0.0198863636,11.9827273 0,12.5701705 0,17.2569886 C0,21.9438068 0.0198863636,22.53125 0.103806818,24.3719318 C0.187727273,26.2090341 0.479261364,27.4634659 0.906022727,28.5611932 C1.34710227,29.6959091 1.93693182,30.6584091 2.89625,31.6177273 C3.85596591,32.5770455 4.81806818,33.1672727 5.95318182,33.6079545 C7.05051136,34.0347159 8.30494318,34.32625 10.1420455,34.4101705 C11.9827273,34.4940909 12.5701705,34.5139773 17.2569886,34.5139773 C21.9438068,34.5139773 22.53125,34.4940909 24.3719318,34.4101705 C26.2090341,34.32625 27.4634659,34.0347159 28.5607955,33.6079545 C29.6959091,33.1672727 30.6580114,32.5770455 31.6177273,31.6177273 C32.5770455,30.6584091 33.166875,29.6959091 33.6079545,28.5611932 C34.0347159,27.4634659 34.32625,26.2090341 34.4101705,24.3719318 C34.4940909,22.53125 34.5139773,21.9438068 34.5139773,17.2569886 C34.5139773,12.5701705 34.4940909,11.9827273 34.4101705,10.1420455 C34.32625,8.30534091 34.0347159,7.05090909 33.6079545,5.95318182 C33.166875,4.81846591 32.5770455,3.85596591 31.6177273,2.89625 C30.6580114,1.93693182 29.6959091,1.34710227 28.5607955,0.906022727 C27.4634659,0.479261364 26.2090341,0.187727273 24.3719318,0.103806818 C22.53125,0.0198863636 21.9438068,0 17.2569886,0 M17.2569886,3.10943182 C21.8646591,3.10943182 22.4103409,3.12693182 24.2303409,3.21005682 C25.9127273,3.28681818 26.8267045,3.56801136 27.4348295,3.80426136 C28.2402273,4.11727273 28.8149432,4.49113636 29.4190909,5.09488636 C30.0228409,5.69903409 30.3967045,6.27375 30.7097159,7.07914773 C30.9459659,7.68727273 31.2271591,8.60125 31.3039205,10.2836364 C31.3870455,12.1036364 31.4045455,12.6493182 31.4045455,17.2569886 C31.4045455,21.8650568 31.3870455,22.4107386 31.3039205,24.2303409 C31.2271591,25.9127273 30.9459659,26.8267045 30.7097159,27.4348295 C30.3967045,28.2402273 30.0228409,28.8149432 29.4190909,29.4190909 C28.8149432,30.0228409 28.2402273,30.3967045 27.4348295,30.7101136 C26.8267045,30.9463636 25.9127273,31.2275568 24.2303409,31.3039205 C22.4107386,31.3870455 21.8650568,31.4045455 17.2569886,31.4045455 C12.6489205,31.4045455 12.1032386,31.3870455 10.2836364,31.3039205 C8.60125,31.2275568 7.68727273,30.9463636 7.07914773,30.7101136 C6.27375,30.3967045 5.69903409,30.0228409 5.09488636,29.4190909 C4.49113636,28.8149432 4.11727273,28.2402273 3.80426136,27.4348295 C3.56801136,26.8267045 3.28681818,25.9127273 3.21005682,24.2303409 C3.12693182,22.4107386 3.10943182,21.8650568 3.10943182,17.2569886 C3.10943182,12.6493182 3.12693182,12.1036364 3.21005682,10.2836364 C3.28681818,8.60125 3.56801136,7.68727273 3.80426136,7.07914773 C4.11727273,6.27375 4.49113636,5.69903409 5.09488636,5.09488636 C5.69903409,4.49113636 6.27375,4.11727273 7.07914773,3.80426136 C7.68727273,3.56801136 8.60125,3.28681818 10.2836364,3.21005682 C12.1036364,3.12693182 12.6493182,3.10943182 17.2569886,3.10943182" id="Fill-1"></path>
                                    <path d="M20.6494886,26.37875 L13.5922159,26.37875 C13.2664773,26.37875 13,26.1122727 13,25.7865341 L13,20 L21.2417045,20 L21.2417045,25.7865341 C21.2417045,26.1122727 20.9752273,26.37875 20.6494886,26.37875" id="Fill-4"></path>
                                    <path d="M13,12.2438636 L13,9.59221591 C13,9.26647727 13.2664773,9 13.5922159,9 L21.4449432,9 C21.7706818,9 22.0371591,9.26647727 22.0371591,9.59221591 L22.0371591,12.2438636 L13,12.2438636 Z" id="Fill-6"></path>
                                    <path d="M24.1954545,15.9280682 C23.8804545,15.9280682 23.6251136,15.6727273 23.6251136,15.3577273 C23.6251136,15.0427273 23.8804545,14.7873864 24.1954545,14.7873864 C24.5104545,14.7873864 24.7657955,15.0427273 24.7657955,15.3577273 C24.7657955,15.6727273 24.5104545,15.9280682 24.1954545,15.9280682 M24.3708523,13 L10.4790341,13 C9.32085227,13 8,14.0726705 8,15.2308523 L8,19.9144886 C8,21.0726705 9.32085227,22.1477273 10.4790341,22.1477273 L11.9772727,22.1477273 L11.9772727,18.9659091 L23.1136364,18.9659091 L23.1136364,22.1477273 L24.3708523,22.1477273 C25.5290341,22.1477273 26.6931818,21.0726705 26.6931818,19.9144886 L26.6931818,15.2308523 C26.6931818,14.0726705 25.5290341,13 24.3708523,13" id="Fill-8"></path>
                                </g>
                            </g>
                        </g>
                    </g>
                </g>
            </g>
        </g>
    </g>
</svg>