<svg xmlns="http://www.w3.org/2000/svg" xmlns:xlink="http://www.w3.org/1999/xlink" width="20" height="20" viewBox="0 0 20 20">
    <defs>
        <path id="a" d="M0 10V0h20v20H0z"/>
    </defs>
    <g fill="none" fill-rule="evenodd">
        <g>
            <mask id="b" fill="#fff">
                <use xlink:href="#a"/>
            </mask>
            <path fill="#ffffff" d="M10 0C7.284 0 6.943.01 5.877.06 4.813.109 4.086.278 3.449.525a4.911 4.911 0 0 0-1.77 1.153A4.882 4.882 0 0 0 .525 3.45C.277 4.086.108 4.812.061 5.877.012 6.944 0 7.284 0 10s.012 3.057.061 4.123c.047 1.065.216 1.792.464 2.427a4.882 4.882 0 0 0 1.154 1.772 4.898 4.898 0 0 0 1.77 1.153c.637.247 1.364.416 2.428.465 1.066.049 1.407.06 4.123.06s3.057-.011 4.123-.06c1.064-.05 1.791-.218 2.428-.465a4.898 4.898 0 0 0 1.77-1.153 4.882 4.882 0 0 0 1.154-1.772c.248-.635.417-1.362.464-2.427.049-1.066.061-1.407.061-4.123s-.012-3.056-.061-4.123c-.047-1.065-.216-1.791-.464-2.427a4.882 4.882 0 0 0-1.154-1.772 4.911 4.911 0 0 0-1.77-1.153C15.914.278 15.187.109 14.123.06 13.057.01 12.716 0 10 0m0 1.802c2.67 0 2.986.01 4.041.058.975.045 1.504.207 1.856.345.467.18.8.398 1.151.748.349.349.566.682.748 1.149.137.353.3.882.344 1.857.048 1.055.058 1.37.058 4.04s-.01 2.987-.058 4.042c-.044.975-.207 1.504-.344 1.857-.182.467-.399.8-.748 1.15a3.129 3.129 0 0 1-1.151.748c-.352.137-.881.3-1.856.344-1.055.048-1.371.058-4.041.058-2.67 0-2.986-.01-4.041-.058-.975-.044-1.504-.207-1.856-.344a3.129 3.129 0 0 1-1.151-.748 3.117 3.117 0 0 1-.748-1.15c-.137-.353-.3-.882-.344-1.857-.048-1.055-.058-1.371-.058-4.041 0-2.67.01-2.986.058-4.041.044-.975.207-1.504.344-1.857.182-.467.399-.8.748-1.15.351-.35.684-.566 1.151-.747.352-.138.881-.3 1.856-.345C7.014 1.812 7.33 1.802 10 1.802" mask="url(#b)"/>
        </g>
        <path fill="#ffffff" d="M15.556 6.554a4.563 4.563 0 0 1-1.31.359 2.281 2.281 0 0 0 1.003-1.261c-.44.26-.928.45-1.447.553a2.28 2.28 0 0 0-3.886 2.079 6.468 6.468 0 0 1-4.698-2.382 2.28 2.28 0 0 0 .705 3.044A2.272 2.272 0 0 1 4.89 8.66v.028a2.28 2.28 0 0 0 1.828 2.236 2.282 2.282 0 0 1-1.03.039 2.282 2.282 0 0 0 2.13 1.583 4.58 4.58 0 0 1-3.374.944 6.448 6.448 0 0 0 3.494 1.024c4.193 0 6.486-3.473 6.486-6.486a5.78 5.78 0 0 0-.007-.295 4.61 4.61 0 0 0 1.138-1.18"/>
    </g>
</svg>
